<?xml version="1.0" encoding="utf-8"?>
<!-- Generator: Adobe Illustrator 15.0.0, SVG Export Plug-In . SVG Version: 6.00 Build 0)  -->
<!DOCTYPE svg PUBLIC "-//W3C//DTD SVG 1.1//EN" "http://www.w3.org/Graphics/SVG/1.1/DTD/svg11.dtd">
<svg version="1.1" xmlns="http://www.w3.org/2000/svg" xmlns:xlink="http://www.w3.org/1999/xlink" x="0px" y="0px" width="179px"
	 height="120.472px" viewBox="0 0 179 120.472" enable-background="new 0 0 179 120.472" xml:space="preserve">
<g id="Layer_1" display="none">
	<path display="inline" fill="none" stroke="#BCBEC0" stroke-width="7" stroke-miterlimit="10" d="M175.5,106.133
		c0,3.521-3.582,6.375-8,6.375h-156c-4.418,0-8-2.854-8-6.375v-91.25c0-3.521,3.582-6.375,8-6.375h156c4.418,0,8,2.854,8,6.375
		V106.133z"/>
</g>
<g id="Layer_6" display="none">
</g>
<g id="Layer_3" display="none">
	<rect x="59.75" y="0.062" display="inline" fill="#FFFFFF" width="21.928" height="76.835"/>
	<path display="inline" fill="#A29D9F" d="M77.678,72.898H63.75V4.062h13.928V72.898z"/>
	<path display="inline" fill="#FFFFFF" d="M104.215,77.796c-7.396,0-13.417-2.958-17.894-8.792
		c-4.229-5.512-6.374-13.094-6.374-22.536c0-8.954,2.106-16.277,6.261-21.769c4.413-5.833,10.503-8.791,18.103-8.791
		c3.101,0,5.952,0.584,8.536,1.745V0h21.928v76.835h-20.077l-0.199-1.635C111.463,76.926,108.025,77.796,104.215,77.796z
		 M107.866,35.196c-1.651,0-6.038,0-6.038,12.306c0,4.063,0.637,7.098,1.894,9.02c0.955,1.462,2.165,2.085,4.047,2.085
		c2.435,0,3.998-0.744,5.078-2.457V37.636C111.794,35.934,110.261,35.196,107.866,35.196z"/>
	<path display="inline" fill="#A29D9F" d="M83.947,46.468c0-8.1,1.817-14.552,5.451-19.355c3.633-4.803,8.604-7.204,14.913-7.204
		c5.06,0,9.238,1.89,12.536,5.667V4h13.928v68.835H118.24l-0.673-5.521c-3.457,4.322-7.908,6.482-13.352,6.482
		c-6.116,0-11.022-2.408-14.721-7.228C85.797,61.75,83.947,55.05,83.947,46.468z M97.828,47.501c0,4.875,0.848,8.611,2.546,11.209
		c1.696,2.598,4.162,3.896,7.396,3.896c4.29,0,7.315-1.812,9.078-5.436v-20.54c-1.729-3.624-4.724-5.436-8.981-5.436
		C101.172,31.196,97.828,36.631,97.828,47.501z"/>
	<path display="inline" fill="#FFFFFF" d="M82.178,120.472c-4.301,0-7.869-0.82-10.606-2.436c-3.321-1.962-5.149-4.974-5.149-8.482
		c0-1.979,0.588-5.068,3.713-7.483c-0.176-0.646-0.229-1.238-0.229-1.715c0-0.76,0.139-2.004,0.872-3.279
		c-0.094-0.104-0.187-0.211-0.277-0.319c-1.691-2.019-2.55-4.401-2.55-7.079c0-3.722,1.5-6.906,4.337-9.209
		c2.628-2.132,5.989-3.213,9.99-3.213h16.056v12.362H96.07c0.005,0.137,0.008,0.274,0.008,0.412c0,2.883-1.055,5.514-3.136,7.819
		c-0.538,0.588-1.149,1.112-1.839,1.573c0.995,0.427,1.872,0.909,2.638,1.448c2.743,1.93,4.193,4.665,4.193,7.909
		c0,3.838-1.672,6.966-4.836,9.045C90.382,119.605,86.811,120.472,82.178,120.472z M82.077,89.467c-0.221,0-0.255,0.033-0.346,0.122
		c-0.075,0.074-0.097,0.113-0.097,0.114c0.006,0.115,0.017,0.153,0.017,0.153c0.105,0.083,0.159,0.133,0.426,0.133
		c0.169,0,0.236-0.025,0.236-0.025c0.065-0.068,0.12-0.124,0.124-0.398C82.358,89.499,82.284,89.467,82.077,89.467z"/>
	<path display="inline" fill="#FFFFFF" d="M94.334,81.255v4.362h-4.011c0.652,0.802,1.107,1.542,1.366,2.218
		c0.259,0.677,0.388,1.408,0.388,2.193c0,1.872-0.702,3.584-2.105,5.138c-1.237,1.354-3.359,2.231-6.367,2.632
		c-1.621,0.2-2.694,0.43-3.221,0.689c-0.526,0.259-0.789,0.656-0.789,1.19c0,0.484,0.321,0.856,0.965,1.115
		c0.643,0.259,1.675,0.505,3.095,0.74c3.525,0.568,6.12,1.437,7.783,2.606c1.662,1.169,2.494,2.715,2.494,4.637
		c0,2.472-1.011,4.374-3.033,5.702c-2.022,1.329-4.93,1.993-8.722,1.993c-3.593,0-6.45-0.627-8.573-1.88
		c-2.122-1.253-3.183-2.933-3.183-5.038c0-2.975,2.047-5.03,6.141-6.166c-1.771-0.769-2.657-1.78-2.657-3.033
		c0-1.638,1.337-2.766,4.011-3.384v-0.101c-1.822-0.501-3.271-1.395-4.349-2.682c-1.078-1.286-1.617-2.79-1.617-4.511
		c0-2.523,0.953-4.557,2.857-6.103c1.905-1.545,4.395-2.319,7.469-2.319H94.334z M76.162,109.278c0,2.089,2.088,3.133,6.266,3.133
		c1.804,0,3.221-0.289,4.249-0.865s1.542-1.333,1.542-2.268c0-1.036-0.581-1.817-1.742-2.344c-1.162-0.526-2.803-0.789-4.925-0.789
		c-1.588,0-2.882,0.296-3.885,0.89C76.663,107.627,76.162,108.375,76.162,109.278z M77.641,89.728c0,1.22,0.43,2.235,1.291,3.045
		c0.86,0.811,1.909,1.216,3.146,1.216c1.27,0,2.314-0.422,3.133-1.267c0.819-0.843,1.228-1.909,1.228-3.195
		c0-1.153-0.426-2.118-1.277-2.895c-0.853-0.777-1.88-1.165-3.083-1.165c-1.237,0-2.285,0.422-3.146,1.265
		C78.071,87.576,77.641,88.575,77.641,89.728z"/>
</g>
<g id="Layer_2">
	<path fill="#FFFFFF" d="M35.348,63.087c2.561,0,4.642-0.704,6.244-2.113c1.601-1.409,2.433-3.282,2.497-5.62h13.016
		c-0.032,3.522-0.993,6.748-2.882,9.678c-1.89,2.93-4.475,5.204-7.756,6.821c-3.282,1.615-6.908,2.424-10.878,2.424
		c-7.429,0-13.288-2.36-17.578-7.084c-4.292-4.723-6.436-11.246-6.436-19.571v-0.913c0-8.004,2.129-14.391,6.388-19.163
		c4.258-4.771,10.102-7.156,17.531-7.156c6.5,0,11.71,1.849,15.633,5.547c3.922,3.699,5.915,8.621,5.979,14.769H44.089
		c-0.064-2.703-0.896-4.901-2.497-6.59c-1.602-1.69-3.715-2.535-6.34-2.535c-3.234,0-5.675,1.179-7.324,3.535
		c-1.65,2.357-2.474,6.181-2.474,11.472v1.443c0,5.355,0.817,9.204,2.449,11.545C29.536,61.917,32.018,63.087,35.348,63.087z"/>
	<path fill="#FFFFFF" d="M77.678,73.315H63.75V4.48h13.928V73.315z"/>
	<path fill="#FFFFFF" d="M83.947,46.948c0-8.1,1.817-14.552,5.451-19.355c3.633-4.803,8.604-7.204,14.913-7.204
		c5.06,0,9.238,1.89,12.536,5.667V4.48h13.928v68.835H118.24l-0.673-5.521c-3.457,4.322-7.908,6.482-13.352,6.482
		c-6.116,0-11.022-2.408-14.721-7.228C85.797,62.229,83.947,55.53,83.947,46.948z M97.828,47.981c0,4.875,0.848,8.611,2.546,11.209
		c1.696,2.598,4.162,3.896,7.396,3.896c4.29,0,7.315-1.812,9.078-5.436v-20.54c-1.729-3.624-4.724-5.436-8.981-5.436
		C101.172,31.676,97.828,37.111,97.828,47.981z"/>
	<path fill="#FFFFFF" d="M168.735,34.365c-1.891-0.256-3.555-0.384-4.995-0.384c-5.251,0-8.693,1.777-10.326,5.332v34.003h-13.88
		V21.35h13.111l0.385,6.196c2.785-4.771,6.644-7.156,11.574-7.156c1.537,0,2.978,0.208,4.322,0.625L168.735,34.365z"/>
</g>
<g id="Layer_5">
	<g>
		<path fill="#FFFFFF" d="M27.895,78.7c3.848,0,6.894,1.233,9.135,3.699c2.242,2.466,3.363,5.876,3.363,10.228v1.036H21.87
			c0.28,2.336,1.153,4.134,2.62,5.395c1.467,1.261,3.479,1.892,6.04,1.892c1.643,0,3.227-0.285,4.75-0.854
			c1.522-0.57,3.096-1.434,4.722-2.592v5.128c-3.064,2.167-6.782,3.251-11.153,3.251c-4.129,0-7.5-1.243-10.116-3.727
			c-2.616-2.485-3.924-5.792-3.924-9.92c0-3.979,1.21-7.229,3.63-9.751C20.856,79.961,24.009,78.7,27.895,78.7z M33.92,89.488
			c-0.188-1.905-0.767-3.395-1.739-4.469c-0.971-1.074-2.307-1.612-4.006-1.612c-1.737,0-3.134,0.515-4.189,1.542
			c-1.056,1.027-1.723,2.541-2.003,4.539H33.92z"/>
		<path fill="#FFFFFF" d="M58.96,78.7c2.803,0,5.04,0.919,6.712,2.76c1.672,1.84,2.508,4.264,2.508,7.271v16.646h-6.865V89.432
			c0-1.699-0.406-3.044-1.22-4.036c-0.812-0.989-1.919-1.484-3.32-1.484c-1.065,0-2.064,0.312-2.999,0.938
			c-0.935,0.626-1.962,1.667-3.083,3.124v17.402h-6.894V79.204h6.894v3.671c1.27-1.494,2.574-2.563,3.909-3.208
			C55.939,79.021,57.392,78.7,58.96,78.7z"/>
		<path fill="#FFFFFF" d="M96.005,79.204v4.876h-4.484c0.729,0.897,1.238,1.724,1.527,2.48c0.29,0.757,0.434,1.574,0.434,2.452
			c0,2.093-0.785,4.007-2.354,5.745c-1.383,1.513-3.755,2.494-7.118,2.942C82.199,97.923,81,98.18,80.411,98.47
			c-0.588,0.29-0.882,0.733-0.882,1.331c0,0.542,0.36,0.958,1.079,1.247c0.718,0.29,1.873,0.565,3.46,0.827
			c3.941,0.635,6.842,1.606,8.702,2.914c1.858,1.308,2.788,3.036,2.788,5.185c0,2.763-1.13,4.889-3.391,6.374
			c-2.26,1.486-5.511,2.229-9.751,2.229c-4.017,0-7.212-0.701-9.584-2.103c-2.372-1.401-3.559-3.278-3.559-5.632
			c0-3.326,2.289-5.624,6.866-6.894c-1.98-0.859-2.97-1.99-2.97-3.391c0-1.831,1.495-3.092,4.484-3.783v-0.112
			c-2.037-0.561-3.657-1.56-4.863-2.999c-1.205-1.438-1.807-3.119-1.807-5.043c0-2.821,1.065-5.095,3.195-6.823
			c2.129-1.728,4.913-2.593,8.351-2.593H96.005z M75.689,110.533c0,2.335,2.334,3.502,7.005,3.502c2.017,0,3.601-0.322,4.75-0.967
			c1.149-0.644,1.723-1.49,1.723-2.536c0-1.158-0.649-2.032-1.947-2.62c-1.3-0.588-3.134-0.882-5.507-0.882
			c-1.775,0-3.222,0.331-4.343,0.995C76.249,108.688,75.689,109.524,75.689,110.533z M77.342,88.676c0,1.364,0.48,2.499,1.443,3.405
			c0.962,0.907,2.134,1.359,3.517,1.359c1.42,0,2.587-0.472,3.503-1.416c0.915-0.942,1.373-2.134,1.373-3.572
			c0-1.289-0.476-2.368-1.428-3.237c-0.953-0.868-2.103-1.302-3.447-1.302c-1.383,0-2.555,0.472-3.517,1.414
			C77.823,86.271,77.342,87.387,77.342,88.676z"/>
		<rect x="100.208" y="79.204" fill="#FFFFFF" width="6.894" height="26.174"/>
		<path fill="#FFFFFF" d="M127.38,78.7c2.802,0,5.039,0.919,6.711,2.76c1.672,1.84,2.508,4.264,2.508,7.271v16.646h-6.866V89.432
			c0-1.699-0.405-3.044-1.218-4.036c-0.813-0.989-1.92-1.484-3.321-1.484c-1.064,0-2.064,0.312-2.998,0.938
			c-0.934,0.626-1.962,1.667-3.083,3.124v17.402h-6.894V79.204h6.894v3.671c1.27-1.494,2.573-2.563,3.909-3.208
			C124.358,79.021,125.811,78.7,127.38,78.7z"/>
		<path fill="#FFFFFF" d="M151.982,78.7c3.848,0,6.894,1.233,9.135,3.699c2.242,2.466,3.363,5.876,3.363,10.228v1.036h-18.522
			c0.28,2.336,1.153,4.134,2.62,5.395c1.466,1.261,3.479,1.892,6.039,1.892c1.644,0,3.227-0.285,4.75-0.854s3.097-1.434,4.722-2.592
			v5.128c-3.064,2.167-6.782,3.251-11.153,3.251c-4.129,0-7.5-1.243-10.116-3.727c-2.616-2.485-3.923-5.792-3.923-9.92
			c0-3.979,1.209-7.229,3.629-9.751C144.943,79.961,148.096,78.7,151.982,78.7z M158.006,89.488
			c-0.188-1.905-0.766-3.395-1.737-4.469c-0.971-1.074-2.308-1.612-4.006-1.612c-1.738,0-3.135,0.515-4.19,1.542
			c-1.055,1.027-1.724,2.541-2.004,4.539H158.006z"/>
	</g>
</g>
</svg>
